<svg fill="none" height="24" viewBox="0 0 24 24" width="24" xmlns="http://www.w3.org/2000/svg"><g fill="#0f0f0f"><path d="m23 4c0-1.65685-1.3431-3-3-3h-4c-.5523 0-1 .44772-1 1s.4477 1 1 1h4c.5523 0 1 .44772 1 1v4c0 .55228.4477 1 1 1s1-.44772 1-1z"/><path d="m23 16c0-.5523-.4477-1-1-1s-1 .4477-1 1v4c0 .5523-.4477 1-1 1h-4c-.5523 0-1 .4477-1 1s.4477 1 1 1h4c1.6569 0 3-1.3431 3-3z"/><path d="m8 21h-4c-.55228 0-1-.4477-1-1v-4c0-.5523-.44772-1-1-1s-1 .4477-1 1v4c0 1.6569 1.34315 3 3 3h4c.55228 0 1-.4477 1-1s-.44772-1-1-1z"/><path d="m1 8c0 .55228.44772 1 1 1s1-.44772 1-1v-4c0-.55228.44772-1 1-1h4c.55228 0 1-.44772 1-1s-.44772-1-1-1h-4c-1.65685 0-3 1.34315-3 3z"/><path d="m11 9c0-.55229.4477-1 1-1s1 .44771 1 1v2h2c.5523 0 1 .4477 1 1s-.4477 1-1 1h-2v2c0 .5523-.4477 1-1 1s-1-.4477-1-1v-2h-2c-.55229 0-1-.4477-1-1s.44771-1 1-1h2z"/></g></svg>