<?xml version="1.0" encoding="UTF-8"?>
<svg version="1.1" xmlns="http://www.w3.org/2000/svg" width="2048" height="2048">
<path d="M0 0 C675.84 0 1351.68 0 2048 0 C2048 675.84 2048 1351.68 2048 2048 C1372.16 2048 696.32 2048 0 2048 C0 1372.16 0 696.32 0 0 Z " fill="#FCFDFC" transform="translate(0,0)"/>
<path d="M0 0 C0.70487549 0.34248779 1.40975098 0.68497559 2.13598633 1.0378418 C2.89435791 1.38999756 3.65272949 1.74215332 4.43408203 2.10498047 C11.35621618 5.35138313 18.19774021 8.77848088 25.01025391 12.24829102 C29.55536291 14.56197878 34.12742654 16.66660732 38.82348633 18.6628418 C41.81267536 20.13127273 44.78353165 21.63022937 47.74926758 23.14526367 C51.05613912 24.82059925 54.3593618 26.34346219 57.82348633 27.6628418 C59.49015299 28.32950846 61.15681966 28.99617513 62.82348633 29.6628418 C62.82348633 30.3228418 62.82348633 30.9828418 62.82348633 31.6628418 C63.55108154 31.78143555 64.27867676 31.9000293 65.02832031 32.0222168 C67.8440769 32.66756096 69.98824507 33.58763124 72.54614258 34.9128418 C73.41432617 35.3562793 74.28250977 35.7997168 75.17700195 36.2565918 C76.0709668 36.7206543 76.96493164 37.1847168 77.88598633 37.6628418 C79.66663281 38.58320466 81.44912071 39.50001574 83.23364258 40.4128418 C84.01876221 40.82018555 84.80388184 41.2275293 85.61279297 41.6472168 C87.68407144 42.59879255 89.59853758 43.19610037 91.82348633 43.6628418 C91.82348633 44.3228418 91.82348633 44.9828418 91.82348633 45.6628418 C92.38422852 45.79045898 92.9449707 45.91807617 93.52270508 46.04956055 C100.4468717 47.89522126 106.68205291 51.0502339 112.82348633 54.6628418 C113.56727539 54.95803711 114.31106445 55.25323242 115.07739258 55.55737305 C118.46836759 56.92244549 121.69488769 58.56695414 124.94848633 60.2253418 C129.51422069 62.54139486 134.09297499 64.80640995 138.74536133 66.9440918 C161.81070867 77.54395068 161.81070867 77.54395068 164.82348633 84.6628418 C165.02275704 87.68080651 165.11046867 90.60689265 165.10437012 93.62516785 C165.11031236 94.54103473 165.11625461 95.45690162 165.12237692 96.40052205 C165.13975194 99.47652418 165.14276745 102.55237063 165.14575195 105.62841797 C165.15500831 107.83112928 165.16505763 110.03383739 165.17584229 112.23654175 C165.20209594 118.22638634 165.21498147 124.2161861 165.2238636 130.20607924 C165.22972463 133.94834418 165.23793421 137.69059684 165.24687195 141.43285561 C165.27109029 151.79994045 165.29185372 162.16701663 165.29862213 172.53412914 C165.29928083 173.52909113 165.29928083 173.52909113 165.29995283 174.54415335 C165.30038939 175.20902511 165.30082595 175.87389688 165.30127573 176.55891627 C165.30216265 177.9061395 165.30305578 179.25336272 165.30395508 180.60058594 C165.30461937 181.60298422 165.30461937 181.60298422 165.30529708 182.62563298 C165.31318872 193.44762175 165.34808389 204.26934082 165.39467412 215.09122547 C165.44215313 226.20958977 165.46651272 237.32784196 165.46935797 248.44631177 C165.47145387 254.68584926 165.48326413 260.92500642 165.51899719 267.16444969 C165.55196715 273.0357424 165.55626618 278.90636909 165.53871918 284.77772141 C165.5371788 286.9299517 165.54585943 289.08221785 165.56563568 291.23435783 C165.73550677 310.87605017 165.73550677 310.87605017 160.4771347 317.17924976 C155.50858086 321.63685213 150.19371118 323.98149072 143.99926758 326.28393555 C141.30584412 327.45340477 138.81035009 328.72315281 136.24145508 330.13549805 C135.41363525 330.58900635 134.58581543 331.04251465 133.73291016 331.50976562 C132.07246497 332.42900062 130.41954724 333.3619973 128.77539062 334.31005859 C123.45101688 337.24887555 119.91370237 338.54071078 113.82348633 337.6628418 C111.01294603 336.53114568 108.54935582 335.05698366 106.01098633 333.4128418 C105.35678711 333.01709961 104.70258789 332.62135742 104.02856445 332.21362305 C99.9328493 329.66164527 96.51773025 327.42975599 95.28442383 322.5144043 C95.16062255 319.30682575 95.12418306 316.7472686 96.90161133 313.9909668 C103.59229726 307.70577698 113.42169311 304.01767341 121.82348633 300.6628418 C123.50088495 299.68094992 125.1681601 298.68150409 126.82348633 297.6628418 C128.14348633 297.0028418 129.46348633 296.3428418 130.82348633 295.6628418 C131.15348633 239.8928418 131.48348633 184.1228418 131.82348633 126.6628418 C120.6679529 131.86254226 120.6679529 131.86254226 109.82348633 137.6628418 C105.88598633 138.4128418 105.88598633 138.4128418 102.82348633 138.6628418 C102.82348633 139.3228418 102.82348633 139.9828418 102.82348633 140.6628418 C102.18282227 140.91678711 101.5421582 141.17073242 100.88208008 141.43237305 C100.01711914 141.77655273 99.1521582 142.12073242 98.26098633 142.4753418 C97.41407227 142.81178711 96.5671582 143.14823242 95.69458008 143.49487305 C88.87651713 146.26847961 82.16349926 149.27531791 75.44848633 152.2878418 C74.07756836 152.89885742 74.07756836 152.89885742 72.67895508 153.5222168 C71.81141602 153.91151367 70.94387695 154.30081055 70.05004883 154.7019043 C69.26194824 155.05462402 68.47384766 155.40734375 67.66186523 155.77075195 C65.85224865 156.52492656 65.85224865 156.52492656 64.82348633 157.6628418 C64.7198451 160.43309887 64.68190663 163.17872945 64.68545532 165.949646 C64.68263404 166.8290199 64.67981276 167.70839381 64.67690599 168.61441541 C64.6685198 171.58466783 64.66721832 174.55488317 64.66577148 177.52514648 C64.66110619 179.64523423 64.6559631 181.76532098 64.65037537 183.88540649 C64.63907173 188.46295834 64.6306485 193.04050359 64.62425613 197.61806488 C64.6136031 204.85300646 64.59336544 212.08790082 64.57113647 219.32281494 C64.50912172 239.90032794 64.45518582 260.47783858 64.42211914 281.05541992 C64.40379106 292.41097586 64.37487683 303.76645317 64.33411443 315.12195134 C64.3130118 321.13546679 64.29758258 327.14888301 64.29530716 333.16243744 C64.2931643 338.81934307 64.27733187 344.4760422 64.25091743 350.13288498 C64.24370882 352.21097297 64.241631 354.28908595 64.24501991 356.36718369 C64.24890357 359.20106938 64.23449563 362.03429198 64.21548462 364.86810303 C64.22377916 366.10590078 64.22377916 366.10590078 64.23224127 367.36870456 C64.17897226 371.95903286 63.76885829 374.91890189 60.82348633 378.6628418 C58.68676758 380.18237305 58.68676758 380.18237305 56.13598633 381.4753418 C55.16145508 381.97678711 54.18692383 382.47823242 53.18286133 382.99487305 C51.5199707 383.82051758 51.5199707 383.82051758 49.82348633 384.6628418 C48.53668818 385.31190812 47.25024514 385.96167883 45.96411133 386.61206055 C43.23595774 387.98848864 40.49930294 389.34594351 37.75708008 390.6940918 C35.29215273 391.91192948 32.89335336 393.17631871 30.48364258 394.5065918 C24.18884301 397.94159182 19.00629039 400.48355258 11.82348633 398.6628418 C7.03704756 396.64695506 2.50354199 394.28894406 -2.0534668 391.80493164 C-5.51115776 389.94487203 -9.03247349 388.21563673 -12.55151367 386.4753418 C-13.88522263 385.81073046 -15.21856849 385.14538988 -16.55151367 384.47924805 C-17.1728418 384.16874512 -17.79416992 383.85824219 -18.43432617 383.53833008 C-19.97713834 382.76303237 -21.51473176 381.97736867 -23.05151367 381.19018555 C-26.86912432 379.2396251 -30.65451972 377.44063333 -34.66479492 375.9206543 C-40.96656965 373.42503997 -46.95446095 370.36358564 -52.98901367 367.2878418 C-67.267335 359.75283457 -67.267335 359.75283457 -82.17651367 353.6628418 C-82.17651367 353.0028418 -82.17651367 352.3428418 -82.17651367 351.6628418 C-82.75119385 351.51588867 -83.32587402 351.36893555 -83.91796875 351.2175293 C-91.33222553 349.17363477 -97.98709669 346.06946271 -104.86401367 342.6628418 C-106.64899723 341.79096864 -108.43398547 340.9191047 -110.21939087 340.0480957 C-112.02956757 339.16402119 -113.8382335 338.276913 -115.64672852 337.3894043 C-120.97526495 334.78299887 -126.32450788 332.22061875 -131.67651367 329.6628418 C-133.02555786 329.01508789 -133.02555786 329.01508789 -134.40185547 328.35424805 C-141.47453577 324.96727499 -148.60245037 321.70997502 -155.76000977 318.5065918 C-158.21689225 317.40379475 -160.66584845 316.28483493 -163.11401367 315.1628418 C-163.93708008 314.79803711 -164.76014648 314.43323242 -165.6081543 314.05737305 C-170.2183438 311.92614189 -173.46262084 310.15480235 -176.17651367 305.6628418 C-176.80151367 302.1628418 -176.80151367 302.1628418 -176.17651367 298.6628418 C-171.78884731 293.81331582 -166.03315495 291.39542934 -160.17651367 288.6628418 C-158.9431471 288.07491576 -157.71009221 287.48633558 -156.47729492 286.8972168 C-139.15499487 278.6628418 -139.15499487 278.6628418 -133.17651367 278.6628418 C-133.17651367 278.0028418 -133.17651367 277.3428418 -133.17651367 276.6628418 C-131.85651367 276.6628418 -130.53651367 276.6628418 -129.17651367 276.6628418 C-129.17651367 276.0028418 -129.17651367 275.3428418 -129.17651367 274.6628418 C-128.18651367 274.27612305 -127.19651367 273.8894043 -126.17651367 273.4909668 C-116.95426191 269.86570943 -116.95426191 269.86570943 -108.01245117 265.6081543 C-105.83983095 264.48948601 -103.6442764 263.43918507 -101.42651367 262.4128418 C-100.70979492 262.07768555 -99.99307617 261.7425293 -99.25463867 261.3972168 C-97.17651367 260.6628418 -97.17651367 260.6628418 -93.17651367 260.6628418 C-93.17651367 260.0028418 -93.17651367 259.3428418 -93.17651367 258.6628418 C-92.02151367 258.2503418 -90.86651367 257.8378418 -89.67651367 257.4128418 C-86.01038953 256.04208638 -82.56916282 254.41008055 -79.09057617 252.6237793 C-76.86498809 251.50644324 -74.58655925 250.53784937 -72.28979492 249.5769043 C-69.39411376 248.32442853 -66.53834495 246.99073151 -63.67651367 245.6628418 C-62.54600586 245.14463867 -61.41549805 244.62643555 -60.25073242 244.0925293 C-58.53143389 243.29295717 -56.81839909 242.47796429 -55.13354492 241.6081543 C-50.40035803 239.24718222 -45.32957524 238.53907514 -40.17651367 239.6628418 C-38.22064018 240.76058919 -36.37080854 241.97974731 -34.49853516 243.21459961 C-30.09509308 245.96102148 -25.36391175 248.07485489 -20.67651367 250.2878418 C-19.68264648 250.76479492 -18.6887793 251.24174805 -17.66479492 251.7331543 C-12.24295081 254.31157422 -6.83506915 256.65540188 -1.17651367 258.6628418 C-1.17651367 259.3228418 -1.17651367 259.9828418 -1.17651367 260.6628418 C-0.61262939 260.78594727 -0.04874512 260.90905273 0.53222656 261.03588867 C2.99276748 261.70916188 5.16480432 262.63196413 7.48364258 263.6940918 C8.79751953 264.29157227 8.79751953 264.29157227 10.13793945 264.90112305 C11.04479492 265.31749023 11.95165039 265.73385742 12.88598633 266.1628418 C14.68878191 266.98704983 16.49214356 267.81002113 18.29614258 268.6315918 C19.09286377 268.99704102 19.88958496 269.36249023 20.71044922 269.73901367 C22.94175986 270.75242644 22.94175986 270.75242644 25.82348633 271.6628418 C25.82348633 272.3228418 25.82348633 272.9828418 25.82348633 273.6628418 C27.47348633 273.9928418 29.12348633 274.3228418 30.82348633 274.6628418 C30.82348633 239.3528418 30.82348633 204.0428418 30.82348633 167.6628418 C22.83622451 170.73486557 15.92492736 173.46345498 8.57739258 177.4284668 C5.63932649 178.7453872 3.0076046 179.26893026 -0.17651367 179.6628418 C-0.17651367 180.3228418 -0.17651367 180.9828418 -0.17651367 181.6628418 C-4.16714741 183.43645679 -8.1610232 185.02867439 -12.28198242 186.4753418 C-17.89233125 188.50462682 -23.27326825 190.89109697 -28.67651367 193.4128418 C-36.03380571 196.79761369 -43.41062834 200.11957435 -50.86401367 203.2878418 C-51.65936523 203.63041016 -52.4547168 203.97297852 -53.27416992 204.32592773 C-58.81856541 206.6628418 -58.81856541 206.6628418 -62.17651367 206.6628418 C-62.17651367 207.3228418 -62.17651367 207.9828418 -62.17651367 208.6628418 C-63.19229492 209.02635742 -64.20807617 209.38987305 -65.25463867 209.7644043 C-72.86368752 212.52787123 -80.17242939 215.48212364 -87.36791992 219.22143555 C-91.07644177 221.12469641 -94.86752814 222.8148383 -98.67260742 224.5144043 C-100.82245701 225.50045075 -102.90098043 226.5545439 -104.98901367 227.6628418 C-111.159146 230.79932573 -119.22359727 234.6628418 -126.17651367 234.6628418 C-126.17651367 235.3228418 -126.17651367 235.9828418 -126.17651367 236.6628418 C-127.05049805 236.99155273 -127.05049805 236.99155273 -127.94213867 237.3269043 C-132.82107505 239.21404007 -137.51571854 241.28414583 -142.17651367 243.6628418 C-146.62528294 245.92704917 -151.07601519 247.93901385 -155.73901367 249.7175293 C-157.4217848 250.37014246 -159.08823614 251.06588984 -160.73901367 251.7956543 C-166.17504036 254.16562935 -170.25301034 255.71378594 -176.17651367 254.6628418 C-180.98175936 251.56324188 -184.65893882 247.81118533 -187.17651367 242.6628418 C-187.46851293 239.81234749 -187.59890079 237.18138073 -187.5843811 234.33280945 C-187.59188334 233.49705362 -187.59938557 232.66129779 -187.60711515 231.80021602 C-187.62843755 229.00129858 -187.62833167 226.20280121 -187.62817383 223.40380859 C-187.63878798 221.39636586 -187.65061822 219.38892923 -187.66357422 217.38150024 C-187.69436077 211.92893599 -187.70549664 206.47650297 -187.71121645 201.02386069 C-187.71557015 197.61677607 -187.72394458 194.20972548 -187.73371506 190.80265236 C-187.76746353 178.91496667 -187.78459678 167.0273803 -187.78735352 155.13964844 C-187.79038842 144.06103315 -187.83083546 132.98297585 -187.88850176 121.9045226 C-187.93627727 112.39097803 -187.95708558 102.87761769 -187.95714414 93.36395389 C-187.95768228 87.68275288 -187.9692785 82.00209828 -188.00831985 76.32102013 C-188.04417746 70.97653765 -188.04646876 65.63307398 -188.02314758 60.28853226 C-188.02028711 58.32938567 -188.02934499 56.37017914 -188.05132675 54.41115379 C-188.22648653 37.76583677 -188.22648653 37.76583677 -183.87387085 32.62239075 C-182.06877708 31.01508808 -182.06877708 31.01508808 -180.17651367 29.6628418 C-179.50422541 29.11574397 -178.83193714 28.56864614 -178.1392765 28.0049696 C-175.28239108 26.05144506 -172.97791609 26.22914047 -169.55151367 26.2253418 C-168.40424805 26.20600586 -167.25698242 26.18666992 -166.07495117 26.16674805 C-156.35767633 27.40331509 -147.38245963 32.86357722 -138.67651367 37.1003418 C-136.93821289 37.94048828 -136.93821289 37.94048828 -135.16479492 38.79760742 C-130.00908706 41.29390213 -124.87100232 43.81385661 -119.77026367 46.4206543 C-115.98779145 48.32072437 -112.21228622 49.80108955 -108.17651367 51.1003418 C-102.9528987 52.90373268 -98.45268041 54.99139313 -93.84838867 58.0378418 C-89.7657467 60.52085212 -85.46662312 62.56444123 -81.17651367 64.6628418 C-81.20269775 63.68935791 -81.22888184 62.71587402 -81.25585938 61.71289062 C-81.34661388 58.08828877 -81.40385268 54.46378653 -81.45117188 50.83837891 C-81.47625914 49.27180065 -81.51033782 47.70533881 -81.55371094 46.13916016 C-81.61462593 43.88243871 -81.64277866 41.62726886 -81.66479492 39.36987305 C-81.69060135 38.67384476 -81.71640778 37.97781647 -81.74299622 37.26069641 C-81.74521017 33.38973381 -81.30862042 31.8232913 -78.81640625 28.79638672 C-71.12259421 22.57829522 -59.30374058 14.6628418 -49.17651367 14.6628418 C-49.17651367 14.0028418 -49.17651367 13.3428418 -49.17651367 12.6628418 C-48.29737305 12.29545898 -47.41823242 11.92807617 -46.51245117 11.54956055 C-42.94034216 10.02212027 -39.42307586 8.3885436 -35.90307617 6.74487305 C-34.17057617 5.94726562 -34.17057617 5.94726562 -32.40307617 5.13354492 C-30.00399552 4.02897905 -27.61069038 2.91178077 -25.22338867 1.78198242 C-15.96825693 -2.43848133 -9.44828133 -4.29873881 0 0 Z " fill="#020202" transform="translate(698.176513671875,829.337158203125)"/>
<path d="M0 0 C9.9 0 19.8 0 30 0 C37.89788294 9.02615193 37.89788294 9.02615193 40.875 13.1875 C41.54660156 14.12464844 42.21820312 15.06179688 42.91015625 16.02734375 C45.44209027 19.62884242 47.94069035 23.25265711 50.43310547 26.8815918 C53.37625957 31.14747666 56.42078377 35.33155175 59.5 39.5 C63.63440379 45.09821199 67.63230115 50.77287303 71.5703125 56.51171875 C74.39587184 60.59847704 77.32763058 64.60722874 80.25 68.625 C84.98496874 75.14812649 89.62700351 81.72864546 94.1875 88.375 C94.74018555 89.17760254 95.29287109 89.98020508 95.86230469 90.80712891 C96.37567383 91.55913574 96.88904297 92.31114258 97.41796875 93.0859375 C97.86938232 93.7464209 98.3207959 94.4069043 98.78588867 95.08740234 C100 97 100 97 100.97387695 99.18212891 C101.9290149 101.34895493 101.9290149 101.34895493 105 102 C105 68.34 105 34.68 105 0 C114.57 0 124.14 0 134 0 C134 51.48 134 102.96 134 156 C124.76 156 115.52 156 106 156 C104.68 154.02 103.36 152.04 102 150 C100.42535111 147.76389146 98.84416015 145.53453988 97.25 143.3125 C96.59692871 142.3994812 96.59692871 142.3994812 95.93066406 141.46801758 C92.64819733 136.88539191 89.3297365 132.32993025 85.984375 127.79296875 C84.34132393 125.48040672 82.76742332 123.14547731 81.20703125 120.77734375 C77.94231474 115.85576064 74.46325033 111.11165266 70.9375 106.375 C68.62092758 103.25298851 66.30878991 100.12776996 64 97 C63.48969238 96.31583008 62.97938477 95.63166016 62.45361328 94.92675781 C59 90.22712073 59 90.22712073 59 88 C58.34 88 57.68 88 57 88 C55.625 86.05078125 55.625 86.05078125 54 83.3125 C50.86618161 78.23714756 47.45389846 73.55076462 43.78125 68.86547852 C40.24827544 64.35404827 36.89646642 59.73023517 33.59375 55.046875 C32.15775903 52.89930498 32.15775903 52.89930498 30 52 C30 85.99 30 119.98 30 155 C20.1 155 10.2 155 0 155 C0 103.85 0 52.7 0 0 Z " fill="#030303" transform="translate(941,857)"/>
<path d="M0 0 C1.51110352 -0.0309375 1.51110352 -0.0309375 3.05273438 -0.0625 C9.38761744 -0.09551568 13.90491258 0.66549951 19.6875 3.25 C21.234375 3.83201172 21.234375 3.83201172 22.8125 4.42578125 C29.20979426 6.95514624 34.52899313 9.68504518 39.6875 14.25 C40.36554688 14.84683594 41.04359375 15.44367187 41.7421875 16.05859375 C49.34124211 23.18449967 53.8559082 31.28850078 56.6875 41.25 C57.0175 42.24 57.3475 43.23 57.6875 44.25 C57.6875 52.83 57.6875 61.41 57.6875 70.25 C28.9775 70.25 0.2675 70.25 -29.3125 70.25 C-25.56201466 82.75209737 -25.56201466 82.75209737 -16.3125 91.25 C-10.08948645 94.01899862 -4.13374933 94.80128625 2.625 94.75 C3.50309326 94.74427979 4.38118652 94.73855957 5.28588867 94.73266602 C13.15894623 94.515453 18.91780865 92.93741634 24.65625 87.32421875 C26.49345365 85.43035345 26.49345365 85.43035345 28.01953125 83.5078125 C29.6875 82.25 29.6875 82.25 32.1015625 82.3671875 C34.89034416 83.31924891 36.8669471 84.52591303 39.25 86.25 C42.06802699 88.28171444 44.24931525 89.62629302 47.6875 90.25 C47.6875 90.91 47.6875 91.57 47.6875 92.25 C49.3375 92.58 50.9875 92.91 52.6875 93.25 C49.5315471 102.27380504 41.99776635 108.87885073 33.6875 113.25 C17.09108944 120.58993587 -2.9182414 123.99425932 -20.671875 118.3359375 C-29.27883662 114.7963882 -36.50004724 110.50057788 -43.375 104.25 C-43.91116943 103.764104 -44.44733887 103.27820801 -44.99975586 102.77758789 C-48.65488597 99.2898417 -51.04629077 95.77154936 -53.3125 91.25 C-53.3125 90.59 -53.3125 89.93 -53.3125 89.25 C-53.9725 89.25 -54.6325 89.25 -55.3125 89.25 C-62.22076919 71.66531478 -62.94818531 52.13120809 -56.3125 34.25 C-49.67603609 19.54488695 -37.17411628 9.16525785 -22.375 3.3125 C-14.7734962 0.53375945 -8.03202957 0.04064278 0 0 Z " fill="#060606" transform="translate(1153.3125,895.75)"/>
<path d="M0 0 C34.98 0 69.96 0 106 0 C106 8.91 106 17.82 106 27 C81.25 27 56.5 27 31 27 C31 40.2 31 53.4 31 67 C53.11 67 75.22 67 98 67 C98 75.58 98 84.16 98 93 C75.89 93 53.78 93 31 93 C31 113.13 31 133.26 31 154 C20.77 154 10.54 154 0 154 C0 103.18 0 52.36 0 0 Z " fill="#050505" transform="translate(941,1038)"/>
<path d="M0 0 C2.32421875 1.25 2.32421875 1.25 5 3 C7.57723373 4.38669869 10.19547811 5.69025809 12.8125 7 C13.48603516 7.34289062 14.15957031 7.68578125 14.85351562 8.0390625 C18.88535121 10.06076762 22.92816105 11.76949566 27.16674805 13.30712891 C29.70332804 14.26582035 32.08869461 15.44993297 34.5 16.6875 C35.52609375 17.20957031 36.5521875 17.73164062 37.609375 18.26953125 C38.72828125 18.84058594 39.8471875 19.41164063 41 20 C43.58088027 21.29658509 46.16546733 22.58571377 48.75 23.875 C52.94751104 25.97097236 57.14300921 28.07069742 61.33203125 30.18359375 C62.39502441 30.71847412 62.39502441 30.71847412 63.47949219 31.26416016 C64.82343656 31.94054285 66.16659604 32.61848844 67.50878906 33.29833984 C70.46870258 34.78602484 73.42059603 36.17998479 76.46875 37.484375 C80.37295107 39.16007192 84.14853558 41.01926825 87.9375 42.9375 C88.60201172 43.27201172 89.26652344 43.60652344 89.95117188 43.95117188 C92.67590653 45.32278903 95.40042766 46.69461745 98.11865234 48.07910156 C101.61494974 49.84973055 105.07267223 51.50578221 108.75 52.875 C113.78932307 54.83300324 118.54432004 57.2335177 123.3359375 59.73046875 C125.5968206 60.80786906 127.55633977 61.51937488 130 62 C130 62.99 130 63.98 130 65 C122.82149073 68.79115021 115.70186251 72.24870537 108.0625 75 C100.12789073 77.86007166 92.60059416 81.35787051 85 85 C82.17518318 86.30265438 79.34372555 87.58891027 76.5078125 88.8671875 C74.8107923 89.63375426 73.1181594 90.41009609 71.4296875 91.1953125 C70.62789062 91.56398438 69.82609375 91.93265625 69 92.3125 C68.29875 92.63863281 67.5975 92.96476563 66.875 93.30078125 C65 94 65 94 62 94 C62 94.66 62 95.32 62 96 C57.08890031 95.45265607 53.25142251 93.84724854 48.9375 91.5625 C47.53100042 90.8377974 46.12338652 90.11525462 44.71484375 89.39453125 C43.5853833 88.81566162 43.5853833 88.81566162 42.43310547 88.22509766 C37.12340215 85.55159864 31.73379261 83.0417088 26.35913086 80.50219727 C21.83225764 78.35962483 17.33234056 76.17665598 12.85888672 73.92480469 C9.95195844 72.47859451 7.00819484 71.11515891 4.0625 69.75 C-0.00357741 67.86311404 -4.06730056 65.97222548 -8.1171875 64.05078125 C-16.42515449 60.11180122 -24.76846898 56.28110058 -33.20043945 52.61352539 C-36.31965336 51.24669464 -39.15894545 49.89403637 -42 48 C-42.34057617 44.92724609 -42.34057617 44.92724609 -42.29296875 41.0234375 C-42.28872391 40.33819 -42.28447906 39.6529425 -42.28010559 38.94692993 C-42.26329753 36.75588871 -42.22564405 34.56576368 -42.1875 32.375 C-42.17245579 30.89063827 -42.15876693 29.40626215 -42.14648438 27.921875 C-42.1133879 24.28095167 -42.06159207 20.64056522 -42 17 C-29.44574151 10.59508219 -29.44574151 10.59508219 -22.875 8.125 C-21.79992187 7.71507812 -20.72484375 7.30515625 -19.6171875 6.8828125 C-17 6 -17 6 -15 6 C-15 5.34 -15 4.68 -15 4 C-13.44219668 3.32243118 -11.87849904 2.65840543 -10.3125 2 C-9.44238281 1.62875 -8.57226562 1.2575 -7.67578125 0.875 C-4.82733951 -0.05646124 -2.97005923 -0.37418069 0 0 Z " fill="#FBFBFB" transform="translate(691,861)"/>
<path d="M0 0 C10.56 0 21.12 0 32 0 C33.381875 3.7125 34.76375 7.425 36.1875 11.25 C39.01009329 18.81225703 41.89974404 26.31237262 45.08203125 33.73046875 C45.90604658 35.76771515 46.55745894 37.7546666 47.125 39.875 C47.90224795 43.04766334 47.90224795 43.04766334 49.5 45.9375 C51 49 51 49 51.83984375 52.5390625 C53.083448 57.7045757 55.05758504 62.52743097 57.0625 67.4375 C57.42666016 68.34693359 57.79082031 69.25636719 58.16601562 70.19335938 C59.59813744 74.39362215 59.59813744 74.39362215 62 78 C66.36498247 67.83157492 69.86319098 57.49892458 73.10742188 46.92211914 C74.80499996 41.45362787 76.67745449 36.24555661 79.08496094 31.05078125 C80.48583802 27.91114212 81.51056718 24.71133713 82.5625 21.4375 C84.25260623 16.23781995 86.04980219 11.10766093 88 6 C88.66 4.02 89.32 2.04 90 0 C100.56 0 111.12 0 122 0 C117.90428561 11.04890394 113.71027583 21.99883744 108.875 32.75 C107.06976881 36.77370808 105.50332037 40.85548694 104 45 C102.31457171 49.59662262 100.53777944 54.11801345 98.625 58.625 C96.79108665 62.97508614 95.15854285 67.34807427 93.625 71.8125 C91.62146376 77.53958945 89.22561446 82.92614329 86.59301758 88.37841797 C84.02159168 93.77412781 82.05759921 99.26083312 80.12109375 104.91796875 C78.94742845 108.14452596 77.50625052 111.06324903 75.8984375 114.0859375 C74.48577309 117.09552689 73.6776412 120.25654545 72.76171875 123.4453125 C69.03793801 135.93430023 62.5157343 151.15700526 50.99609375 158.23046875 C49.01785607 159.27026351 47.07892814 160.18008629 45 161 C44.18144531 161.35835937 43.36289063 161.71671875 42.51953125 162.0859375 C37.27219502 163.44873071 32.14876435 163.32836006 26.75 163.3125 C25.12771484 163.33666992 25.12771484 163.33666992 23.47265625 163.36132812 C16.93751772 163.3652697 9.84152917 163.29420631 4 160 C2.5103648 156.41159843 3.37540217 154.33161236 4.8125 150.8125 C6.24216978 147.16488362 7.34763134 143.72666304 8.0625 139.875 C8.371875 138.59625 8.68125 137.3175 9 136 C12 135 12 135 15 135.9375 C19.84786332 137.44664295 24.98144907 137.71474002 30 137 C32.18185711 135.54505269 32.18185711 135.54505269 34 134 C34.66 134 35.32 134 36 134 C36.39832031 133.18789062 36.39832031 133.18789062 36.8046875 132.359375 C38.19011305 129.62474418 39.65258458 126.93875859 41.125 124.25 C41.66382813 123.26515625 42.20265625 122.2803125 42.7578125 121.265625 C43.16773438 120.51796875 43.57765625 119.7703125 44 119 C44.66 119 45.32 119 46 119 C45.13337058 111.54399858 43.09870562 105.42691573 39.73046875 98.7265625 C37.65428305 94.45415868 36.05605444 89.99658863 34.37182617 85.55908203 C32.04951929 79.53406161 29.54788804 73.58416144 27.0625 67.625 C23.3957647 58.80715784 19.75666453 49.98133584 16.2421875 41.1015625 C14.54809818 36.87166652 12.77113402 32.67809028 10.98046875 28.48828125 C10.12910481 26.32764846 9.49330043 24.26493851 9 22 C8.34 22 7.68 22 7 22 C6.01388849 19.46083825 5.03599124 16.9189977 4.0625 14.375 C3.78470703 13.66214844 3.50691406 12.94929687 3.22070312 12.21484375 C2.95322266 11.51230469 2.68574219 10.80976562 2.41015625 10.0859375 C2.16402588 9.4470459 1.91789551 8.8081543 1.66430664 8.14990234 C0.84574538 5.50078421 0.45582919 2.73497517 0 0 Z " fill="#050505" transform="translate(1418,899)"/>
<path d="M0 0 C3.96930989 -0.02465881 7.93859034 -0.04284023 11.90795898 -0.05493164 C13.25920386 -0.05997057 14.61044326 -0.06680177 15.96166992 -0.07543945 C17.90020434 -0.08752419 19.838778 -0.09269828 21.77734375 -0.09765625 C23.52905884 -0.10551147 23.52905884 -0.10551147 25.31616211 -0.11352539 C28 0 28 0 29 1 C29.09774467 3.18628867 29.12516335 5.37573657 29.12597656 7.56420898 C29.1278447 8.25054916 29.12971283 8.93688934 29.13163757 9.64402771 C29.13565192 11.1407426 29.13771735 12.63746366 29.13809967 14.13418388 C29.14151168 17.32539555 29.16288109 20.51640287 29.18333054 23.70754337 C29.22132052 29.65132679 29.25262766 35.5948998 29.25048828 41.53881836 C29.24969672 45.670543 29.27326198 49.80152991 29.3123703 53.9330616 C29.3227738 55.50172665 29.32439629 57.07047748 29.31671906 58.63915825 C29.27379727 68.39113983 29.61192263 77.20993784 36.63189697 84.75364685 C41.96884695 89.45847388 49.99939625 88.7976138 56.69140625 88.48828125 C63.37177056 87.9187272 67.53240719 85.33420941 72.3125 80.8125 C77.87215356 71.54641074 78.60322311 62.95900069 78.609375 52.3671875 C78.6243846 50.87930527 78.6411175 49.39143953 78.65948486 47.90359497 C78.70285962 44.02062136 78.72309032 40.13787236 78.73822021 36.25469971 C78.75790018 32.27904135 78.79985725 28.3036218 78.83984375 24.328125 C78.91482167 16.5521178 78.96324461 8.77629903 79 1 C88.24 1 97.48 1 107 1 C107 37.63 107 74.26 107 112 C98.09 112 89.18 112 80 112 C80 107.38 80 102.76 80 98 C78.865625 99.03125 77.73125 100.0625 76.5625 101.125 C63.85916211 112.19569059 51.79746228 116.96154492 34.97119141 116.17919922 C25.996179 115.363289 17.22499299 110.35885416 11.02734375 103.96484375 C0.27567635 91.02175369 -0.29719967 76.11405562 -0.1953125 60.05859375 C-0.19157676 58.32267928 -0.18873244 56.58676268 -0.18673706 54.85084534 C-0.17914474 50.3085638 -0.15953463 45.7664126 -0.1373291 41.22418213 C-0.11677528 36.57850914 -0.10771505 31.93281484 -0.09765625 27.28710938 C-0.07628411 18.19134936 -0.04220203 9.09568557 0 0 Z " fill="#030303" transform="translate(1117,1079)"/>
<path d="M0 0 C4.57120953 -0.22372271 9.13919159 -0.38632695 13.71459961 -0.49438477 C15.26789884 -0.53944773 16.8208204 -0.60072454 18.37280273 -0.67895508 C31.19872755 -1.30892827 31.19872755 -1.30892827 35.42504883 1.76220703 C37.24791507 4.08221861 38.62410922 6.39346701 40 9 C40.94267514 10.36602748 41.901687 11.72096728 42.87890625 13.0625 C43.77647972 14.37292141 44.67100727 15.68543424 45.5625 17 C46.26693237 18.03157227 46.26693237 18.03157227 46.9855957 19.08398438 C50.35921783 24.03219668 53.70687322 28.99778211 57 34 C60.6961047 32.54395875 62.08829279 30.73396739 64.125 27.375 C65.6328125 24.8984375 65.6328125 24.8984375 67 23 C67.66 23 68.32 23 69 23 C69.12568359 21.97132813 69.12568359 21.97132813 69.25390625 20.921875 C70.18538093 17.27400559 71.94193303 14.39345947 73.9375 11.25 C74.47793945 10.36634766 74.47793945 10.36634766 75.02929688 9.46484375 C77.7324953 5.13375235 77.7324953 5.13375235 80 4 C80.66 2.68 81.32 1.36 82 0 C92.89 0 103.78 0 115 0 C106.12036025 17.75927949 93.52379783 34.09852682 81.01171875 49.4375 C80.45097656 50.13875 79.89023438 50.84 79.3125 51.5625 C78.59513672 52.43068359 78.59513672 52.43068359 77.86328125 53.31640625 C76.83216412 54.97161228 76.83216412 54.97161228 77.12890625 56.92578125 C78.24317989 59.57905167 79.76918085 61.42524525 81.625 63.625 C84.91783668 67.63215575 87.95574358 71.710148 90.89453125 75.98046875 C93.67056367 79.96168037 96.52512256 83.88397068 99.375 87.8125 C107.51693891 99.074794 107.51693891 99.074794 111.25 104.375 C111.95640625 105.37273437 112.6628125 106.37046875 113.390625 107.3984375 C114.84678969 109.75233479 115.42464725 111.35323667 116 114 C85.71070975 116.24867776 85.71070975 116.24867776 79.9296875 111.52734375 C77.21883591 108.38044337 75.66370196 104.78077283 74 101 C72.6393671 98.93470787 71.24425862 96.89163599 69.8125 94.875 C67.84034965 91.87477127 65.9110389 88.85646907 64.01953125 85.8046875 C63.39433594 84.79664063 62.76914063 83.78859375 62.125 82.75 C61.57070312 81.83734375 61.01640625 80.9246875 60.4453125 79.984375 C59.96835938 79.32953125 59.49140625 78.6746875 59 78 C58.34 78 57.68 78 57 78 C55.3508363 80.26119338 53.81908097 82.52121254 52.3125 84.875 C51.40579078 86.26357157 50.49823691 87.65159196 49.58984375 89.0390625 C49.14624512 89.72000977 48.70264648 90.40095703 48.24560547 91.10253906 C46.16961275 94.26494898 44.02291705 97.36974154 41.78051758 100.41625977 C39.93955745 102.97878812 39.93955745 102.97878812 38.50048828 105.84594727 C36.59598172 109.14216605 34.89018979 111.50318989 32 114 C26.434166 115.3569934 21.17778309 115.05077344 15.5 114.6875 C13.99497111 114.63224431 12.48974668 114.5820678 10.984375 114.53710938 C7.31881323 114.41665373 3.66066753 114.22736078 0 114 C0.60159338 111.03270879 1.49257983 108.97289637 3.22265625 106.49609375 C3.67479492 105.84334473 4.12693359 105.1905957 4.59277344 104.51806641 C5.0777832 103.83147949 5.56279297 103.14489258 6.0625 102.4375 C6.80741699 101.36894775 6.80741699 101.36894775 7.56738281 100.27880859 C11.03262753 95.32446936 14.55994377 90.41666061 18.1484375 85.55078125 C20.70582984 82.02762261 23.13475171 78.41942943 25.5546875 74.80078125 C26.03164062 74.20652344 26.50859375 73.61226562 27 73 C27.66 73 28.32 73 29 73 C29.0825 72.443125 29.165 71.88625 29.25 71.3125 C30.41742647 67.71293505 32.85423836 65.22828187 35.41015625 62.48828125 C37.01379116 60.76423026 37.01379116 60.76423026 39 58 C38.78780062 53.94168682 36.01484837 50.90511661 33.6875 47.75 C33.24744629 47.14373779 32.80739258 46.53747559 32.35400391 45.9128418 C27.9081542 39.81281278 23.36239904 33.78629338 18.8203125 27.7578125 C15.79815709 23.74107485 12.83099785 19.68636256 9.890625 15.609375 C8.51785737 13.71472876 7.13047782 11.83064258 5.734375 9.953125 C4.62835937 8.46039062 4.62835937 8.46039062 3.5 6.9375 C2.8296875 6.03902344 2.159375 5.14054688 1.46875 4.21484375 C0 2 0 2 0 0 Z " fill="#050505" transform="translate(1215,899)"/>
<path d="M0 0 C11.55 0 23.1 0 35 0 C35.495 2.475 35.495 2.475 36 5 C36.99 5.33 37.98 5.66 39 6 C40.69140625 8.1953125 40.69140625 8.1953125 42.5625 11.125 C43.25730469 12.19492188 43.95210937 13.26484375 44.66796875 14.3671875 C45.44535546 15.57809742 46.22269666 16.78903656 47 18 C48.78067927 20.75730879 50.57501785 23.50526496 52.375 26.25 C53.01804077 27.25184326 53.01804077 27.25184326 53.67407227 28.27392578 C54.73058326 29.88471004 55.8591699 31.4477925 57 33 C57.66 33 58.32 33 59 33 C60.20872111 31.55089042 60.20872111 31.55089042 61.35546875 29.6328125 C61.80986328 28.91649658 62.26425781 28.20018066 62.73242188 27.4621582 C63.21259766 26.690896 63.69277344 25.91963379 64.1875 25.125 C65.17944555 23.55761552 66.17293129 21.99120469 67.16796875 20.42578125 C67.65185059 19.66346191 68.13573242 18.90114258 68.63427734 18.11572266 C70.8274122 14.71820628 73.17609075 11.43919591 75.5625 8.17578125 C77.27178237 5.58863376 78.6132788 2.77344239 80 0 C91.22 0 102.44 0 114 0 C111.75604642 5.60988394 111.75604642 5.60988394 109.55859375 8.328125 C109.06552734 8.95090332 108.57246094 9.57368164 108.06445312 10.21533203 C107.52755859 10.88677246 106.99066406 11.55821289 106.4375 12.25 C98.34332558 22.58145627 91.07862579 33.45504347 83.80078125 44.36816406 C82.24609529 46.64033254 80.61889182 48.81402083 78.9375 50.9921875 C76.76046555 53.68032011 76.76046555 53.68032011 77.20776367 55.93896484 C78.10681559 58.27788512 79.23456461 59.97941948 80.73828125 61.984375 C81.30514648 62.74661377 81.87201172 63.50885254 82.45605469 64.29418945 C83.06868164 65.10460693 83.68130859 65.91502441 84.3125 66.75 C84.94188477 67.59328857 85.57126953 68.43657715 86.21972656 69.30541992 C88.13993012 71.87527464 90.06870846 74.43847117 92 77 C93.58995384 79.1136052 95.17935672 81.22762331 96.76855469 83.34179688 C97.75164759 84.64956317 98.73536592 85.95685955 99.71972656 87.26367188 C103.88829026 92.81238714 107.93185683 98.44507737 111.94140625 104.109375 C113.18408202 105.85430871 114.45512791 107.58016305 115.77734375 109.265625 C117 111 117 111 117 113 C87.94941447 115.67418336 87.94941447 115.67418336 80.38916016 111.58935547 C76.4476743 107.89290512 74.28355541 103.31674545 72.14648438 98.41748047 C70.19475278 94.30205324 67.47560563 90.74054619 64.8125 87.0625 C60.23549039 80.47098078 60.23549039 80.47098078 59 78 C58.34 78 57.68 78 57 78 C55.76038607 79.4474358 55.76038607 79.4474358 54.56640625 81.375 C54.08727783 82.105979 53.60814941 82.83695801 53.11450195 83.59008789 C52.34626099 84.78299438 52.34626099 84.78299438 51.5625 86 C50.48540244 87.64520436 49.40725349 89.28972081 48.328125 90.93359375 C47.77833984 91.77390137 47.22855469 92.61420898 46.66210938 93.47998047 C44.0937251 97.37405545 41.45892043 101.22119269 38.8125 105.0625 C38.34336182 105.74634766 37.87422363 106.43019531 37.39086914 107.13476562 C34.1287676 111.8712324 34.1287676 111.8712324 33 113 C30.47905924 113.08847743 27.98569107 113.11527301 25.46484375 113.09765625 C24.33496788 113.09553383 24.33496788 113.09553383 23.18226624 113.09336853 C20.7673044 113.08775376 18.35243399 113.07519883 15.9375 113.0625 C14.30403779 113.0574869 12.67057414 113.05292366 11.03710938 113.04882812 C7.02470415 113.03777954 3.01236759 113.02050506 -1 113 C0.15758454 109.88934385 1.33247731 107.27063282 3.36328125 104.64453125 C3.83121094 104.03158203 4.29914063 103.41863281 4.78125 102.78710938 C5.2865625 102.13548828 5.791875 101.48386719 6.3125 100.8125 C7.40381802 99.38263442 8.49360718 97.95160095 9.58203125 96.51953125 C10.14615723 95.77783691 10.7102832 95.03614258 11.29150391 94.27197266 C14.64169691 89.81685746 17.87717335 85.27820368 21.11108398 80.73828125 C23.83177613 76.93580868 26.60328556 73.20298898 29.5234375 69.55078125 C30.08611328 68.83728516 30.64878906 68.12378906 31.22851562 67.38867188 C32.29650407 66.04196758 33.3803731 64.70764885 34.48242188 63.38867188 C36.95386363 60.25017431 37.96345387 58.63203313 38.19921875 54.5546875 C36.60879001 49.84038731 34.07386043 46.62317792 30.9375 42.8125 C29.74567792 41.31620258 28.55687973 39.81749168 27.37109375 38.31640625 C26.50266846 37.22030029 26.50266846 37.22030029 25.61669922 36.10205078 C22.76379898 32.39267732 20.27102458 28.47663001 17.78125 24.515625 C15.7783438 21.68695923 13.45922605 19.43576762 11 17 C9.41796875 14.83203125 9.41796875 14.83203125 8.1875 12.8125 C7.55908203 11.80123047 7.55908203 11.80123047 6.91796875 10.76953125 C6 9 6 9 6 7 C5.34 7 4.68 7 4 7 C2.50475822 4.7272325 1.21600285 2.4320057 0 0 Z " fill="#050504" transform="translate(1237,1079)"/>
<path d="M0 0 C9.24 0 18.48 0 28 0 C28 9.57 28 19.14 28 29 C37.57 29 47.14 29 57 29 C57 36.92 57 44.84 57 53 C47.76 53 38.52 53 29 53 C29.08861133 60.59958767 29.17904167 68.19875818 29.28729248 75.79802704 C29.33717508 79.33707371 29.38366605 82.87608961 29.421875 86.4152832 C29.46590254 90.47886761 29.52552107 94.54209472 29.5859375 98.60546875 C29.59748871 99.8702153 29.60903992 101.13496185 29.62094116 102.43803406 C29.64081085 103.61888077 29.66068054 104.79972748 29.68115234 106.01635742 C29.69447601 107.05338303 29.70779968 108.09040863 29.7215271 109.15885925 C30.08716003 112.88925673 31.09832803 115.7740264 33.31958008 118.79418945 C35.59977401 120.43037685 37.09856441 120.34366247 39.88671875 120.29296875 C41.2934082 120.2784668 41.2934082 120.2784668 42.72851562 120.26367188 C43.70498047 120.23853516 44.68144531 120.21339844 45.6875 120.1875 C46.67556641 120.17396484 47.66363281 120.16042969 48.68164062 120.14648438 C51.12164231 120.11112203 53.56054719 120.06177033 56 120 C59.33179616 126.66359232 58.14601944 136.666579 58 144 C41.60974058 146.63751301 25.47847492 148.91629154 11.14453125 138.875 C4.20888364 132.81104581 0.25847119 125.01797592 -1 116 C-1.08318298 113.84648853 -1.11785293 111.6907576 -1.11352539 109.53564453 C-1.11344986 108.27479034 -1.11337433 107.01393616 -1.11329651 105.71487427 C-1.10819109 104.3541866 -1.10297511 102.99349935 -1.09765625 101.6328125 C-1.09578912 100.22891287 -1.09436661 98.82501258 -1.09336853 97.42111206 C-1.08956658 93.74192478 -1.07975633 90.06277752 -1.06866455 86.38360596 C-1.05840031 82.62293031 -1.0538602 78.86224814 -1.04882812 75.1015625 C-1.03813179 67.73435472 -1.02055401 60.36718809 -1 53 C-6.94 53 -12.88 53 -19 53 C-19 45.08 -19 37.16 -19 29 C-12.73 29 -6.46 29 0 29 C0 19.43 0 9.86 0 0 Z " fill="#040404" transform="translate(1354,870)"/>
<path d="M0 0 C9.9 0 19.8 0 30 0 C30 52.8 30 105.6 30 160 C20.1 160 10.2 160 0 160 C0 107.2 0 54.4 0 0 Z " fill="#090909" transform="translate(1064,1032)"/>
<path d="M0 0 C0.74620605 0.00757324 1.49241211 0.01514648 2.26123047 0.02294922 C10.92392737 0.28044314 17.84996706 2.80484482 24.21484375 8.80859375 C29.16829666 14.28761195 29.6875 17.6071779 29.6875 25.4375 C10.5475 25.4375 -8.5925 25.4375 -28.3125 25.4375 C-27.1638061 17.39664267 -24.55873712 11.0021962 -18.375 5.5 C-12.23933193 1.36781538 -7.28741708 -0.10379997 0 0 Z " fill="#F7F8F7" transform="translate(1151.3125,919.5625)"/>
<path d="M0 0 C0 35.31 0 70.62 0 107 C-1.65 106.67 -3.3 106.34 -5 106 C-3.02 105.505 -3.02 105.505 -1 105 C-1.06110634 91.73525501 -1.1381363 78.47070848 -1.23571491 65.20617867 C-1.28051558 59.04745913 -1.31975015 52.88880725 -1.34643555 46.72998047 C-1.37237196 40.7906205 -1.41270525 34.8515195 -1.46318626 28.91231918 C-1.47992059 26.64206021 -1.49139378 24.37175637 -1.49761391 22.10144424 C-1.5071838 18.93079477 -1.5351572 15.76081778 -1.56762695 12.59033203 C-1.56619186 11.64374725 -1.56475677 10.69716248 -1.5632782 9.72189331 C-1.57581635 8.86090027 -1.58835449 7.99990723 -1.60127258 7.11282349 C-1.60588155 6.362484 -1.61049051 5.61214451 -1.61523914 4.83906746 C-1.86250382 2.58551277 -1.86250382 2.58551277 -5 1 C-3 0 -3 0 0 0 Z " fill="#828181" transform="translate(729,997)"/>
<path d="M0 0 C11.55 0 23.1 0 35 0 C35 0.33 35 0.66 35 1 C34.2886792 1.0501123 33.5773584 1.10022461 32.84448242 1.15185547 C29.62475764 1.3838082 26.4061992 1.62924177 23.1875 1.875 C22.06794922 1.95363281 20.94839844 2.03226563 19.79492188 2.11328125 C18.72177734 2.19707031 17.64863281 2.28085938 16.54296875 2.3671875 C15.55321045 2.44050293 14.56345215 2.51381836 13.54370117 2.58935547 C10.76407039 2.85756099 10.76407039 2.85756099 8 5 C7.67 5.99 7.34 6.98 7 8 C7.66 8 8.32 8 9 8 C9.33 8.99 9.66 9.98 10 11 C10.515625 11.515625 11.03125 12.03125 11.5625 12.5625 C12.036875 13.036875 12.51125 13.51125 13 14 C13 14.66 13 15.32 13 16 C13.66 16 14.32 16 15 16 C15 16.66 15 17.32 15 18 C15.66 18 16.32 18 17 18 C16.67 19.32 16.34 20.64 16 22 C11.81340142 18.17225273 8.62179138 14.05392126 6 9 C6 8.34 6 7.68 6 7 C5.34 7 4.68 7 4 7 C2.50475822 4.7272325 1.21600285 2.4320057 0 0 Z " fill="#3C3E3D" transform="translate(1237,1079)"/>
<path d="M0 0 C0.33 0.66 0.66 1.32 1 2 C11.89 2 22.78 2 34 2 C33.67 2.66 33.34 3.32 33 4 C21.78 4 10.56 4 -1 4 C-0.67 2.68 -0.34 1.36 0 0 Z " fill="#474A4A" transform="translate(1237,1188)"/>
<path d="M0 0 C6 7.5 6 7.5 12 15 C11.67 15.66 11.34 16.32 11 17 C4.59174964 14.7027027 4.59174964 14.7027027 2 11.625 C0.8430598 8.58803197 1.03783209 7.06144336 2 4 C1.34 4 0.68 4 0 4 C0 2.68 0 1.36 0 0 Z " fill="#CDD7DA" transform="translate(1216,902)"/>
<path d="M0 0 C3.53477881 4.71303842 3.63964183 6.32435876 4 12 C3.67 12.99 3.34 13.98 3 15 C4.28497537 17.56995074 5.49912373 17.90434463 8.0625 19.125 C9.16271484 19.65480469 9.16271484 19.65480469 10.28515625 20.1953125 C10.85105469 20.46085938 11.41695312 20.72640625 12 21 C11.34 21.33 10.68 21.66 10 22 C6.54561869 20.55595535 3.31747977 18.74380347 0 17 C0 11.39 0 5.78 0 0 Z " fill="#F0F1EF" transform="translate(649,892)"/>
<path d="M0 0 C0.99 0.495 0.99 0.495 2 1 C2 1.99 2 2.98 2 4 C2.66 4 3.32 4 4 4 C5.2890625 5.6796875 5.2890625 5.6796875 6.625 7.875 C7.07101562 8.59429688 7.51703125 9.31359375 7.9765625 10.0546875 C9 12 9 12 9 14 C8.34 14 7.68 14 7 14 C7 13.34 7 12.68 7 12 C4.03 11.505 4.03 11.505 1 11 C0.67 7.37 0.34 3.74 0 0 Z " fill="#C6D2CF" transform="translate(1239,1082)"/>
<path d="M0 0 C3 1 3 1 4.3125 2.75 C5.23676421 5.77486468 4.38135816 7.23728368 3 10 C2.67 10 2.34 10 2 10 C1.67 11.98 1.34 13.96 1 16 C0.67 16 0.34 16 0 16 C0 10.72 0 5.44 0 0 Z " fill="#EBECEA" transform="translate(972,910)"/>
<path d="M0 0 C3.3 0 6.6 0 10 0 C10 0.66 10 1.32 10 2 C10.99 2.33 11.98 2.66 13 3 C8.71 3 4.42 3 0 3 C0 2.01 0 1.02 0 0 Z " fill="#E2E5E5" transform="translate(1242,1076)"/>
<path d="M0 0 C0 8.25 0 16.5 0 25 C-0.33 25 -0.66 25 -1 25 C-1.01458252 24.34402832 -1.02916504 23.68805664 -1.04418945 23.01220703 C-1.11851414 20.04919969 -1.21522369 17.08733883 -1.3125 14.125 C-1.33505859 13.09246094 -1.35761719 12.05992187 -1.38085938 10.99609375 C-1.41630859 10.00996094 -1.45175781 9.02382813 -1.48828125 8.0078125 C-1.51446533 7.09660645 -1.54064941 6.18540039 -1.56762695 5.24658203 C-1.71031006 4.50520996 -1.85299316 3.76383789 -2 3 C-2.99 2.34 -3.98 1.68 -5 1 C-3 0 -3 0 0 0 Z " fill="#B4B3B4" transform="translate(729,997)"/>
<path d="M0 0 C0.66 0.33 1.32 0.66 2 1 C1.50628906 1.42410156 1.01257813 1.84820313 0.50390625 2.28515625 C-4.04038583 6.34278269 -4.04038583 6.34278269 -5.9375 11.9375 C-5.958125 12.948125 -5.97875 13.95875 -6 15 C-6.33 15 -6.66 15 -7 15 C-7.43478214 11.89441326 -7.59797636 9.09038203 -7 6 C-4.9849419 3.5001159 -2.68200647 1.74467257 0 0 Z " fill="#353533" transform="translate(801,1139)"/>
<path d="M0 0 C0.66 0.33 1.32 0.66 2 1 C-1.3 4.3 -4.6 7.6 -8 11 C-8 7.0234755 -6.61988497 5.9109833 -4 3 C-1.75 1.1875 -1.75 1.1875 0 0 Z " fill="#C6C6C6" transform="translate(1136,923)"/>
<path d="M0 0 C0.33 0.99 0.66 1.98 1 3 C-1.31 5.31 -3.62 7.62 -6 10 C-6.66 9.67 -7.32 9.34 -8 9 C-6.85459775 7.68712379 -5.70866567 6.37470979 -4.5625 5.0625 C-3.92441406 4.33160156 -3.28632812 3.60070312 -2.62890625 2.84765625 C-1.77458541 1.87860647 -0.91348825 0.91348825 0 0 Z " fill="#353836" transform="translate(1112,910)"/>
<path d="M0 0 C2.15377564 2.62198774 3.40072174 4.64404172 4 8 C2.35 8.33 0.7 8.66 -1 9 C-1.125 2.25 -1.125 2.25 0 0 Z " fill="#DEE0DF" transform="translate(1417,901)"/>
<path d="M0 0 C0.99 0.33 1.98 0.66 3 1 C3 1.66 3 2.32 3 3 C1.04072937 4.7143618 -0.95880212 6.38405168 -3 8 C-3.66 7.67 -4.32 7.34 -5 7 C-3.35 4.69 -1.7 2.38 0 0 Z " fill="#C9C9CB" transform="translate(1294,1156)"/>
<path d="M0 0 C0.99 0.33 1.98 0.66 3 1 C-0.96 4.465 -0.96 4.465 -5 8 C-5.66 7.67 -6.32 7.34 -7 7 C-4.69 4.69 -2.38 2.38 0 0 Z " fill="#3E3F3B" transform="translate(1183,978)"/>
<path d="M0 0 C3 1 3 1 4 3 C5.88013106 4.12224855 5.88013106 4.12224855 8.0625 5.125 C8.79597656 5.47820313 9.52945313 5.83140625 10.28515625 6.1953125 C11.13400391 6.59363281 11.13400391 6.59363281 12 7 C11.01 7.495 11.01 7.495 10 8 C7.6171875 7.00390625 7.6171875 7.00390625 4.875 5.5625 C3.96492187 5.08941406 3.05484375 4.61632812 2.1171875 4.12890625 C1.41851563 3.75636719 0.71984375 3.38382813 0 3 C0 2.01 0 1.02 0 0 Z " fill="#BCBCBA" transform="translate(649,906)"/>
<path d="M0 0 C0.66 0.33 1.32 0.66 2 1 C0.8803014 2.00593243 -0.2459412 3.0045849 -1.375 4 C-2.00148438 4.556875 -2.62796875 5.11375 -3.2734375 5.6875 C-5 7 -5 7 -7 7 C-5.66667905 3.00003714 -3.5042173 2.16217663 0 0 Z " fill="#2C2E2C" transform="translate(625,854)"/>
</svg>
